# Blender 4.3.2
# www.blender.org
mtllib Cone.mtl
o 锥体
v 0.000000 -0.008183 -2.862512
v 0.558448 -0.008183 -2.807509
v 1.095436 -0.008183 -2.644616
v 1.590326 -0.008183 -2.380091
v 2.024101 -0.008183 -2.024101
v 2.380091 -0.008183 -1.590326
v 2.644616 -0.008183 -1.095436
v 2.807509 -0.008183 -0.558448
v 2.862512 -0.008183 0.000000
v 2.807509 -0.008183 0.558448
v 2.644616 -0.008183 1.095436
v 2.380091 -0.008183 1.590326
v 2.024101 -0.008183 2.024101
v 1.590326 -0.008183 2.380091
v 1.095436 -0.008183 2.644616
v 0.558448 -0.008183 2.807509
v 0.000000 -0.008183 2.862512
v -0.558448 -0.008183 2.807509
v -1.095436 -0.008183 2.644616
v -1.590326 -0.008183 2.380091
v -2.024101 -0.008183 2.024101
v -2.380091 -0.008183 1.590326
v -2.644616 -0.008183 1.095436
v -2.807509 -0.008183 0.558448
v -2.862512 -0.008183 0.000000
v -2.807509 -0.008183 -0.558448
v -2.644616 -0.008183 -1.095436
v -2.380091 -0.008183 -1.590326
v -2.024101 -0.008183 -2.024101
v -1.590326 -0.008183 -2.380091
v -1.095436 -0.008183 -2.644616
v -0.558448 -0.008183 -2.807509
v 0.000000 4.488183 0.000000
v -0.537679 1.216564 2.062635
v -0.537679 2.162675 2.062635
v -0.537679 1.216564 1.116524
v -0.537679 2.162675 1.116524
v 0.408431 1.216564 2.062635
v 0.408431 2.162675 2.062635
v 0.408431 1.216564 1.116524
v 0.408431 2.162675 1.116524
v -0.465352 2.844262 0.466389
v -0.465352 3.790373 0.466389
v -0.465352 2.844262 -0.479721
v -0.465352 3.790373 -0.479721
v 0.480759 2.844262 0.466389
v 0.480759 3.790373 0.466389
v 0.480759 2.844262 -0.479721
v 0.480759 3.790373 -0.479721
v -0.460901 1.216564 -1.025293
v -0.460901 2.162675 -1.025293
v -0.460901 1.216564 -1.971403
v -0.460901 2.162675 -1.971403
v 0.485210 1.216564 -1.025293
v 0.485210 2.162675 -1.025293
v 0.485210 1.216564 -1.971403
v 0.485210 2.162675 -1.971403
v 0.952436 1.216564 0.466389
v 0.952436 2.162675 0.466389
v 0.952436 1.216564 -0.479721
v 0.952436 2.162675 -0.479721
v 1.898547 1.216564 0.466389
v 1.898547 2.162675 0.466389
v 1.898547 1.216564 -0.479721
v 1.898547 2.162675 -0.479721
v -1.870471 1.216564 0.466389
v -1.870471 2.162675 0.466389
v -1.870471 1.216564 -0.479721
v -1.870471 2.162675 -0.479721
v -0.924361 1.216564 0.466389
v -0.924361 2.162675 0.466389
v -0.924361 1.216564 -0.479721
v -0.924361 2.162675 -0.479721
vn 0.0828 0.5352 -0.8407
vn 0.2452 0.5352 -0.8084
vn 0.3982 0.5352 -0.7450
vn 0.5359 0.5352 -0.6530
vn 0.6530 0.5352 -0.5359
vn 0.7450 0.5352 -0.3982
vn 0.8084 0.5352 -0.2452
vn 0.8407 0.5352 -0.0828
vn 0.8407 0.5352 0.0828
vn 0.8084 0.5352 0.2452
vn 0.7450 0.5352 0.3982
vn 0.6530 0.5352 0.5359
vn 0.5359 0.5352 0.6530
vn 0.3982 0.5352 0.7450
vn 0.2452 0.5352 0.8084
vn 0.0828 0.5352 0.8407
vn -0.0828 0.5352 0.8407
vn -0.2452 0.5352 0.8084
vn -0.3982 0.5352 0.7450
vn -0.5359 0.5352 0.6530
vn -0.6530 0.5352 0.5359
vn -0.7450 0.5352 0.3982
vn -0.8084 0.5352 0.2452
vn -0.8407 0.5352 0.0828
vn -0.8407 0.5352 -0.0828
vn -0.8084 0.5352 -0.2452
vn -0.7450 0.5352 -0.3982
vn -0.6530 0.5352 -0.5359
vn -0.5359 0.5352 -0.6530
vn -0.3982 0.5352 -0.7450
vn -0.0000 -1.0000 -0.0000
vn -0.2452 0.5352 -0.8084
vn -0.0828 0.5352 -0.8407
vn -1.0000 -0.0000 -0.0000
vn -0.0000 -0.0000 -1.0000
vn 1.0000 -0.0000 -0.0000
vn -0.0000 -0.0000 1.0000
vn -0.0000 1.0000 -0.0000
vt 0.250000 0.490000
vt 0.250000 0.250000
vt 0.296822 0.485388
vt 0.341844 0.471731
vt 0.383337 0.449553
vt 0.419706 0.419706
vt 0.449553 0.383337
vt 0.471731 0.341844
vt 0.485388 0.296822
vt 0.490000 0.250000
vt 0.485388 0.203178
vt 0.471731 0.158156
vt 0.449553 0.116663
vt 0.419706 0.080294
vt 0.383337 0.050447
vt 0.341844 0.028269
vt 0.296822 0.014612
vt 0.250000 0.010000
vt 0.203178 0.014612
vt 0.158156 0.028269
vt 0.116663 0.050447
vt 0.080294 0.080294
vt 0.050447 0.116663
vt 0.028269 0.158156
vt 0.014612 0.203178
vt 0.010000 0.250000
vt 0.014612 0.296822
vt 0.028269 0.341844
vt 0.050447 0.383337
vt 0.080294 0.419706
vt 0.116663 0.449553
vt 0.158156 0.471731
vt 0.750000 0.490000
vt 0.796822 0.485388
vt 0.841844 0.471731
vt 0.883337 0.449553
vt 0.919706 0.419706
vt 0.949553 0.383337
vt 0.971731 0.341844
vt 0.985388 0.296822
vt 0.990000 0.250000
vt 0.985388 0.203178
vt 0.971731 0.158156
vt 0.949553 0.116663
vt 0.919706 0.080294
vt 0.883337 0.050447
vt 0.841844 0.028269
vt 0.796822 0.014612
vt 0.750000 0.010000
vt 0.703178 0.014612
vt 0.658156 0.028269
vt 0.616663 0.050447
vt 0.580294 0.080294
vt 0.550447 0.116663
vt 0.528269 0.158156
vt 0.514612 0.203178
vt 0.510000 0.250000
vt 0.514612 0.296822
vt 0.528269 0.341844
vt 0.550447 0.383337
vt 0.580294 0.419706
vt 0.616663 0.449553
vt 0.658156 0.471731
vt 0.703178 0.485388
vt 0.203178 0.485388
vt 0.375000 0.000000
vt 0.625000 0.000000
vt 0.625000 0.250000
vt 0.375000 0.250000
vt 0.625000 0.500000
vt 0.375000 0.500000
vt 0.625000 0.750000
vt 0.375000 0.750000
vt 0.625000 1.000000
vt 0.375000 1.000000
vt 0.125000 0.500000
vt 0.125000 0.750000
vt 0.875000 0.500000
vt 0.875000 0.750000
s 0
f 1/1/1 33/2/1 2/3/1
f 2/3/2 33/2/2 3/4/2
f 3/4/3 33/2/3 4/5/3
f 4/5/4 33/2/4 5/6/4
f 5/6/5 33/2/5 6/7/5
f 6/7/6 33/2/6 7/8/6
f 7/8/7 33/2/7 8/9/7
f 8/9/8 33/2/8 9/10/8
f 9/10/9 33/2/9 10/11/9
f 10/11/10 33/2/10 11/12/10
f 11/12/11 33/2/11 12/13/11
f 12/13/12 33/2/12 13/14/12
f 13/14/13 33/2/13 14/15/13
f 14/15/14 33/2/14 15/16/14
f 15/16/15 33/2/15 16/17/15
f 16/17/16 33/2/16 17/18/16
f 17/18/17 33/2/17 18/19/17
f 18/19/18 33/2/18 19/20/18
f 19/20/19 33/2/19 20/21/19
f 20/21/20 33/2/20 21/22/20
f 21/22/21 33/2/21 22/23/21
f 22/23/22 33/2/22 23/24/22
f 23/24/23 33/2/23 24/25/23
f 24/25/24 33/2/24 25/26/24
f 25/26/25 33/2/25 26/27/25
f 26/27/26 33/2/26 27/28/26
f 27/28/27 33/2/27 28/29/27
f 28/29/28 33/2/28 29/30/28
f 29/30/29 33/2/29 30/31/29
f 30/31/30 33/2/30 31/32/30
f 1/33/31 2/34/31 3/35/31 4/36/31 5/37/31 6/38/31 7/39/31 8/40/31 9/41/31 10/42/31 11/43/31 12/44/31 13/45/31 14/46/31 15/47/31 16/48/31 17/49/31 18/50/31 19/51/31 20/52/31 21/53/31 22/54/31 23/55/31 24/56/31 25/57/31 26/58/31 27/59/31 28/60/31 29/61/31 30/62/31 31/63/31 32/64/31
f 31/32/32 33/2/32 32/65/32
f 32/65/33 33/2/33 1/1/33
f 34/66/34 35/67/34 37/68/34 36/69/34
f 36/69/35 37/68/35 41/70/35 40/71/35
f 40/71/36 41/70/36 39/72/36 38/73/36
f 38/73/37 39/72/37 35/74/37 34/75/37
f 36/76/31 40/71/31 38/73/31 34/77/31
f 41/70/38 37/78/38 35/79/38 39/72/38
f 42/66/34 43/67/34 45/68/34 44/69/34
f 44/69/35 45/68/35 49/70/35 48/71/35
f 48/71/36 49/70/36 47/72/36 46/73/36
f 46/73/37 47/72/37 43/74/37 42/75/37
f 44/76/31 48/71/31 46/73/31 42/77/31
f 49/70/38 45/78/38 43/79/38 47/72/38
f 50/66/34 51/67/34 53/68/34 52/69/34
f 52/69/35 53/68/35 57/70/35 56/71/35
f 56/71/36 57/70/36 55/72/36 54/73/36
f 54/73/37 55/72/37 51/74/37 50/75/37
f 52/76/31 56/71/31 54/73/31 50/77/31
f 57/70/38 53/78/38 51/79/38 55/72/38
f 58/66/34 59/67/34 61/68/34 60/69/34
f 60/69/35 61/68/35 65/70/35 64/71/35
f 64/71/36 65/70/36 63/72/36 62/73/36
f 62/73/37 63/72/37 59/74/37 58/75/37
f 60/76/31 64/71/31 62/73/31 58/77/31
f 65/70/38 61/78/38 59/79/38 63/72/38
f 66/66/34 67/67/34 69/68/34 68/69/34
f 68/69/35 69/68/35 73/70/35 72/71/35
f 72/71/36 73/70/36 71/72/36 70/73/36
f 70/73/37 71/72/37 67/74/37 66/75/37
f 68/76/31 72/71/31 70/73/31 66/77/31
f 73/70/38 69/78/38 67/79/38 71/72/38
